<svg width="24" height="28" viewBox="0 0 24 28" fill="none" xmlns="http://www.w3.org/2000/svg" xmlns:xlink="http://www.w3.org/1999/xlink">
<path d="M11.818,22.273C12.052,22.273 12.28,22.203 12.475,22.074C12.669,21.944 12.821,21.759 12.91,21.543C12.999,21.327 13.023,21.09 12.977,20.86C12.932,20.631 12.819,20.421 12.654,20.255C12.489,20.09 12.278,19.977 12.049,19.932C11.82,19.886 11.582,19.91 11.366,19.999C11.15,20.089 10.965,20.24 10.836,20.434C10.706,20.629 10.636,20.857 10.636,21.091C10.636,21.404 10.761,21.705 10.983,21.927C11.204,22.148 11.505,22.273 11.818,22.273ZM17.727,22.273C17.961,22.273 18.189,22.203 18.384,22.074C18.578,21.944 18.73,21.759 18.819,21.543C18.909,21.327 18.932,21.09 18.886,20.86C18.841,20.631 18.728,20.421 18.563,20.255C18.398,20.09 18.187,19.977 17.958,19.932C17.729,19.886 17.491,19.91 17.275,19.999C17.059,20.089 16.874,20.24 16.745,20.434C16.615,20.629 16.545,20.857 16.545,21.091C16.545,21.404 16.67,21.705 16.892,21.927C17.113,22.148 17.414,22.273 17.727,22.273ZM17.727,17.545C17.961,17.545 18.189,17.476 18.384,17.346C18.578,17.216 18.73,17.032 18.819,16.816C18.909,16.6 18.932,16.362 18.886,16.133C18.841,15.904 18.728,15.693 18.563,15.528C18.398,15.363 18.187,15.25 17.958,15.205C17.729,15.159 17.491,15.182 17.275,15.272C17.059,15.361 16.874,15.513 16.745,15.707C16.615,15.901 16.545,16.13 16.545,16.364C16.545,16.677 16.67,16.978 16.892,17.199C17.113,17.421 17.414,17.545 17.727,17.545ZM11.818,17.545C12.052,17.545 12.28,17.476 12.475,17.346C12.669,17.216 12.821,17.032 12.91,16.816C12.999,16.6 13.023,16.362 12.977,16.133C12.932,15.904 12.819,15.693 12.654,15.528C12.489,15.363 12.278,15.25 12.049,15.205C11.82,15.159 11.582,15.182 11.366,15.272C11.15,15.361 10.965,15.513 10.836,15.707C10.706,15.901 10.636,16.13 10.636,16.364C10.636,16.677 10.761,16.978 10.983,17.199C11.204,17.421 11.505,17.545 11.818,17.545ZM20.091,3.364L18.909,3.364L18.909,2.182C18.909,1.868 18.785,1.568 18.563,1.346C18.341,1.125 18.041,1 17.727,1C17.414,1 17.113,1.125 16.892,1.346C16.67,1.568 16.545,1.868 16.545,2.182L16.545,3.364L7.091,3.364L7.091,2.182C7.091,1.868 6.966,1.568 6.745,1.346C6.523,1.125 6.223,1 5.909,1C5.596,1 5.295,1.125 5.073,1.346C4.852,1.568 4.727,1.868 4.727,2.182L4.727,3.364L3.545,3.364C2.605,3.364 1.703,3.737 1.038,4.402C0.374,5.067 0,5.969 0,6.909L0,23.455C0,24.395 0.374,25.297 1.038,25.962C1.703,26.626 2.605,27 3.545,27L20.091,27C21.031,27 21.933,26.626 22.598,25.962C23.263,25.297 23.636,24.395 23.636,23.455L23.636,6.909C23.636,5.969 23.263,5.067 22.598,4.402C21.933,3.737 21.031,3.364 20.091,3.364ZM21.273,23.455C21.273,23.768 21.148,24.069 20.927,24.29C20.705,24.512 20.404,24.636 20.091,24.636L3.545,24.636C3.232,24.636 2.931,24.512 2.71,24.29C2.488,24.069 2.364,23.768 2.364,23.455L2.364,12.818L21.273,12.818L21.273,23.455ZM21.273,10.455L2.364,10.455L2.364,6.909C2.364,6.596 2.488,6.295 2.71,6.073C2.931,5.852 3.232,5.727 3.545,5.727L4.727,5.727L4.727,6.909C4.727,7.223 4.852,7.523 5.073,7.745C5.295,7.966 5.596,8.091 5.909,8.091C6.223,8.091 6.523,7.966 6.745,7.745C6.966,7.523 7.091,7.223 7.091,6.909L7.091,5.727L16.545,5.727L16.545,6.909C16.545,7.223 16.67,7.523 16.892,7.745C17.113,7.966 17.414,8.091 17.727,8.091C18.041,8.091 18.341,7.966 18.563,7.745C18.785,7.523 18.909,7.223 18.909,6.909L18.909,5.727L20.091,5.727C20.404,5.727 20.705,5.852 20.927,6.073C21.148,6.295 21.273,6.596 21.273,6.909L21.273,10.455ZM5.909,17.545C6.143,17.545 6.371,17.476 6.566,17.346C6.76,17.216 6.912,17.032 7.001,16.816C7.09,16.6 7.114,16.362 7.068,16.133C7.023,15.904 6.91,15.693 6.745,15.528C6.579,15.363 6.369,15.25 6.14,15.205C5.91,15.159 5.673,15.182 5.457,15.272C5.241,15.361 5.056,15.513 4.926,15.707C4.797,15.901 4.727,16.13 4.727,16.364C4.727,16.677 4.852,16.978 5.073,17.199C5.295,17.421 5.596,17.545 5.909,17.545ZM5.909,22.273C6.143,22.273 6.371,22.203 6.566,22.074C6.76,21.944 6.912,21.759 7.001,21.543C7.09,21.327 7.114,21.09 7.068,20.86C7.023,20.631 6.91,20.421 6.745,20.255C6.579,20.09 6.369,19.977 6.14,19.932C5.91,19.886 5.673,19.91 5.457,19.999C5.241,20.089 5.056,20.24 4.926,20.434C4.797,20.629 4.727,20.857 4.727,21.091C4.727,21.404 4.852,21.705 5.073,21.927C5.295,22.148 5.596,22.273 5.909,22.273Z" fill="#0000A0"/>
</svg>
